<svg width="129" height="93" viewBox="0 0 129 93" fill="none" xmlns="http://www.w3.org/2000/svg">
<g clip-path="url(#clip0_45_212)" filter="url(#filter0_d_45_212)">
<path d="M64.5 4.34C95.3484 4.34 120.36 20.9502 120.36 41.44C120.36 51.0754 114.831 59.8469 105.768 66.4454L114.768 80.66L93.6669 73.0863C85.1739 76.5472 75.1875 78.54 64.5 78.54C33.6516 78.54 8.64003 61.9298 8.64003 41.44C8.64003 20.9502 33.6516 4.34 64.5 4.34Z" stroke="#333333" stroke-width="8" stroke-miterlimit="10" stroke-linecap="round" stroke-linejoin="round"/>
<path d="M61.3688 44.08C61.3688 43.2 61.4888 42.4133 61.7288 41.72C61.9688 41.0267 62.3554 40.3733 62.8888 39.76C63.4488 39.1467 64.1821 38.52 65.0888 37.88C65.8888 37.2933 66.5288 36.7733 67.0088 36.32C67.5154 35.8667 67.8754 35.4133 68.0888 34.96C68.3288 34.5067 68.4488 34 68.4488 33.44C68.4488 32.5867 68.1288 31.9467 67.4888 31.52C66.8754 31.0667 66.0088 30.84 64.8888 30.84C63.7688 30.84 62.6621 31.0133 61.5688 31.36C60.4754 31.7067 59.3554 32.1733 58.2088 32.76L56.0888 28.48C57.3954 27.76 58.8088 27.1733 60.3288 26.72C61.8488 26.2667 63.5154 26.04 65.3288 26.04C68.1021 26.04 70.2488 26.7067 71.7688 28.04C73.3154 29.3733 74.0888 31.0667 74.0888 33.12C74.0888 34.2133 73.9154 35.16 73.5688 35.96C73.2221 36.76 72.7021 37.5067 72.0088 38.2C71.3154 38.8667 70.4488 39.5867 69.4088 40.36C68.6354 40.92 68.0354 41.4 67.6088 41.8C67.1821 42.2 66.8888 42.5867 66.7288 42.96C66.5954 43.3333 66.5287 43.8 66.5287 44.36V45.52H61.3688V44.08ZM60.7288 52.2C60.7288 50.9733 61.0621 50.12 61.7288 49.64C62.3954 49.1333 63.2088 48.88 64.1688 48.88C65.1021 48.88 65.9021 49.1333 66.5688 49.64C67.2354 50.12 67.5688 50.9733 67.5688 52.2C67.5688 53.3733 67.2354 54.2267 66.5688 54.76C65.9021 55.2667 65.1021 55.52 64.1688 55.52C63.2088 55.52 62.3954 55.2667 61.7288 54.76C61.0621 54.2267 60.7288 53.3733 60.7288 52.2Z" fill="black"/>
</g>
<defs>
<filter id="filter0_d_45_212" x="0" y="0" width="129" height="93" filterUnits="userSpaceOnUse" color-interpolation-filters="sRGB">
<feFlood flood-opacity="0" result="BackgroundImageFix"/>
<feColorMatrix in="SourceAlpha" type="matrix" values="0 0 0 0 0 0 0 0 0 0 0 0 0 0 0 0 0 0 127 0" result="hardAlpha"/>
<feOffset dy="4"/>
<feGaussianBlur stdDeviation="2"/>
<feComposite in2="hardAlpha" operator="out"/>
<feColorMatrix type="matrix" values="0 0 0 0 0 0 0 0 0 0 0 0 0 0 0 0 0 0 0.25 0"/>
<feBlend mode="normal" in2="BackgroundImageFix" result="effect1_dropShadow_45_212"/>
<feBlend mode="normal" in="SourceGraphic" in2="effect1_dropShadow_45_212" result="shape"/>
</filter>
<clipPath id="clip0_45_212">
<rect width="121" height="85" fill="white" transform="matrix(-1 0 0 1 125 0)"/>
</clipPath>
</defs>
</svg>
