<svg width="167" height="122" viewBox="0 0 167 122" fill="none" xmlns="http://www.w3.org/2000/svg">
<g clip-path="url(#clip0_45_214)">
<path d="M83.5 0.380005C37.6872 0.380005 0.409485 26.1 0.409485 57.71C0.409485 71.6 7.64309 84.9 20.8225 95.34L11.2873 118.4C10.8626 119.42 11.3832 120.53 12.5751 121.15C13.1779 121.46 13.8766 121.62 14.5753 121.62C15.274 121.62 15.9727 121.47 16.5618 121.16L42.6192 107.63C55.0451 112.49 69.1424 115.05 83.5137 115.05C129.326 115.05 166.604 89.33 166.604 57.72C166.604 26.11 129.313 0.380005 83.5 0.380005Z" fill="#333333"/>
<path d="M76.8688 61.08C76.8688 60.2 76.9888 59.4133 77.2288 58.72C77.4688 58.0267 77.8554 57.3733 78.3888 56.76C78.9488 56.1467 79.6821 55.52 80.5888 54.88C81.3888 54.2933 82.0288 53.7733 82.5088 53.32C83.0154 52.8667 83.3754 52.4133 83.5888 51.96C83.8288 51.5067 83.9488 51 83.9488 50.44C83.9488 49.5867 83.6288 48.9467 82.9888 48.52C82.3754 48.0667 81.5088 47.84 80.3888 47.84C79.2688 47.84 78.1621 48.0133 77.0688 48.36C75.9754 48.7067 74.8554 49.1733 73.7088 49.76L71.5888 45.48C72.8954 44.76 74.3088 44.1733 75.8288 43.72C77.3488 43.2667 79.0154 43.04 80.8288 43.04C83.6021 43.04 85.7488 43.7067 87.2688 45.04C88.8154 46.3733 89.5888 48.0667 89.5888 50.12C89.5888 51.2133 89.4154 52.16 89.0688 52.96C88.7221 53.76 88.2021 54.5067 87.5088 55.2C86.8154 55.8667 85.9488 56.5867 84.9088 57.36C84.1354 57.92 83.5354 58.4 83.1088 58.8C82.6821 59.2 82.3888 59.5867 82.2288 59.96C82.0954 60.3333 82.0287 60.8 82.0287 61.36V62.52H76.8688V61.08ZM76.2288 69.2C76.2288 67.9733 76.5621 67.12 77.2288 66.64C77.8954 66.1333 78.7088 65.88 79.6688 65.88C80.6021 65.88 81.4021 66.1333 82.0688 66.64C82.7354 67.12 83.0688 67.9733 83.0688 69.2C83.0688 70.3733 82.7354 71.2267 82.0688 71.76C81.4021 72.2667 80.6021 72.52 79.6688 72.52C78.7088 72.52 77.8954 72.2667 77.2288 71.76C76.5621 71.2267 76.2288 70.3733 76.2288 69.2Z" fill="white"/>
</g>
<defs>
<clipPath id="clip0_45_214">
<rect width="167" height="122" fill="white"/>
</clipPath>
</defs>
</svg>
